<?xml version="1.0" encoding="UTF-8" standalone="no"?>
<svg
   xmlns:dc="http://purl.org/dc/elements/1.1/"
   xmlns:cc="http://creativecommons.org/ns#"
   xmlns:rdf="http://www.w3.org/1999/02/22-rdf-syntax-ns#"
   xmlns:svg="http://www.w3.org/2000/svg"
   xmlns="http://www.w3.org/2000/svg"
   id="svg857"
   version="1.1"
   viewBox="0 0 6.0854165 7.9375002"
   height="30"
   width="23">
  <defs
     id="defs851" />
  <metadata
     id="metadata854">
    <rdf:RDF>
      <cc:Work
         rdf:about="">
        <dc:format>image/svg+xml</dc:format>
        <dc:type
           rdf:resource="http://purl.org/dc/dcmitype/StillImage" />
        <dc:title></dc:title>
      </cc:Work>
    </rdf:RDF>
  </metadata>
  <g
     transform="translate(0,-289.06247)"
     id="layer1">
    <rect
       transform="scale(-1,1)"
       y="289.78412"
       x="-0.7159313"
       height="7.2158914"
       width="0.7159313"
       id="rect1628"
       style="fill:#fff5ea;fill-opacity:1;stroke:none;stroke-width:0.77183449" />
    <rect
       transform="scale(-1,1)"
       y="289.78412"
       x="-6.0854168"
       height="7.2158914"
       width="0.7159313"
       id="rect1628-2"
       style="fill:#fff5ea;fill-opacity:1;stroke:none;stroke-width:0.77183449" />
    <rect
       transform="matrix(0,-1,-1,0,0,0)"
       y="-6.0854168"
       x="-297"
       height="6.0854168"
       width="0.72158909"
       id="rect1628-2-3"
       style="fill:#fff5ea;fill-opacity:1;stroke:none;stroke-width:0.71159625" />
    <rect
       transform="matrix(0,-1,-1,0,0,0)"
       y="-6.0854168"
       x="-290.50568"
       height="6.0854168"
       width="0.72158909"
       id="rect1628-9-5"
       style="fill:#fff5ea;fill-opacity:1;stroke:none;stroke-width:0.71159625" />
    <rect
       transform="matrix(0,-1,-1,0,0,0)"
       y="-4.6535535"
       x="-290.50568"
       height="3.2216909"
       width="1.4431782"
       id="rect1628-9-3-3-04-5"
       style="fill:#fff5ea;fill-opacity:1;stroke:none;stroke-width:0.73222661" />
    <rect
       transform="matrix(0,-1,-1,0,0,0)"
       y="-1.7898283"
       x="-291.94888"
       height="0.7159313"
       width="0.72158909"
       id="rect1628-9-3-3-04-1"
       style="fill:#fff5ea;fill-opacity:1;stroke:none;stroke-width:0.24407555" />
    <rect
       transform="matrix(0,-1,-1,0,0,0)"
       y="-5.0115194"
       x="-291.94888"
       height="2.8637252"
       width="0.72158909"
       id="rect1628-9-3-3-04-8-3"
       style="fill:#fff5ea;fill-opacity:1;stroke:none;stroke-width:0.4881511" />
    <rect
       transform="matrix(0,-1,-1,0,0,0)"
       y="-1.7898283"
       x="-293.03128"
       height="0.7159313"
       width="0.72158909"
       id="rect1628-9-3-3-04-6"
       style="fill:#fff5ea;fill-opacity:1;stroke:none;stroke-width:0.24407555" />
    <rect
       transform="matrix(0,-1,-1,0,0,0)"
       y="-5.0115194"
       x="-294.11362"
       height="2.8637252"
       width="0.72158909"
       id="rect1628-9-3-3-04-8-7"
       style="fill:#fff5ea;fill-opacity:1;stroke:none;stroke-width:0.4881511" />
    <rect
       transform="matrix(0,-1,-1,0,0,0)"
       y="-1.7898283"
       x="-294.11362"
       height="0.7159313"
       width="0.72158909"
       id="rect1628-9-3-3-04-59"
       style="fill:#fff5ea;fill-opacity:1;stroke:none;stroke-width:0.24407555" />
    <rect
       transform="matrix(0,-1,-1,0,0,0)"
       y="-5.0115194"
       x="-293.03128"
       height="2.8637252"
       width="0.72158909"
       id="rect1628-9-3-3-04-8-36"
       style="fill:#fff5ea;fill-opacity:1;stroke:none;stroke-width:0.4881511" />
    <rect
       transform="matrix(0,-1,-1,0,0,0)"
       y="-1.7898283"
       x="-295.19604"
       height="0.7159313"
       width="0.72158909"
       id="rect1628-9-3-3-04-64"
       style="fill:#fff5ea;fill-opacity:1;stroke:none;stroke-width:0.24407555" />
    <rect
       transform="matrix(0,-1,-1,0,0,0)"
       y="-5.0115194"
       x="-295.19604"
       height="2.8637252"
       width="0.72158909"
       id="rect1628-9-3-3-04-8-0"
       style="fill:#fff5ea;fill-opacity:1;stroke:none;stroke-width:0.4881511" />
  </g>
</svg>
