<?xml version="1.0" encoding="UTF-8" standalone="no"?>
<svg
   xmlns:dc="http://purl.org/dc/elements/1.1/"
   xmlns:cc="http://creativecommons.org/ns#"
   xmlns:rdf="http://www.w3.org/1999/02/22-rdf-syntax-ns#"
   xmlns:svg="http://www.w3.org/2000/svg"
   xmlns="http://www.w3.org/2000/svg"
   id="svg857"
   version="1.1"
   viewBox="0 0 7.9374998 7.9375002"
   height="30"
   width="30">
  <defs
     id="defs851" />
  <metadata
     id="metadata854">
    <rdf:RDF>
      <cc:Work
         rdf:about="">
        <dc:format>image/svg+xml</dc:format>
        <dc:type
           rdf:resource="http://purl.org/dc/dcmitype/StillImage" />
        <dc:title></dc:title>
      </cc:Work>
    </rdf:RDF>
  </metadata>
  <g
     transform="translate(0,-289.06248)"
     id="layer1">
    <rect
       transform="scale(-1,1)"
       y="289.85623"
       x="-0.79374999"
       height="7.1437635"
       width="0.79374999"
       id="rect1628"
       style="fill:#fff5ea;fill-opacity:1;stroke:none;stroke-width:0.8086282" />
    <rect
       transform="scale(-1,1)"
       y="289.85623"
       x="-7.9375"
       height="7.1437635"
       width="0.79374999"
       id="rect1628-2"
       style="fill:#fff5ea;fill-opacity:1;stroke:none;stroke-width:0.8086282" />
    <rect
       transform="matrix(0,-1,-1,0,0,0)"
       y="-7.9375"
       x="-297"
       height="7.9375"
       width="0.79375148"
       id="rect1628-2-3"
       style="fill:#fff5ea;fill-opacity:1;stroke:none;stroke-width:0.85236907" />
    <rect
       transform="scale(-1,1)"
       y="289.0625"
       x="-2.778125"
       height="2.3812544"
       width="0.79374999"
       id="rect1628-9"
       style="fill:#fff5ea;fill-opacity:1;stroke:none;stroke-width:0.46686181" />
    <rect
       transform="scale(-1,1)"
       y="289.0625"
       x="-5.953125"
       height="2.3812544"
       width="0.79374999"
       id="rect1628-9-3"
       style="fill:#fff5ea;fill-opacity:1;stroke:none;stroke-width:0.46686181" />
    <rect
       transform="matrix(0,-1,-1,0,0,0)"
       y="-1.984375"
       x="-295.80936"
       height="0.79374999"
       width="3.5718818"
       id="rect1628-9-3-3-04"
       style="fill:#fff5ea;fill-opacity:1;stroke:none;stroke-width:0.57178664" />
    <rect
       transform="matrix(0,-1,-1,0,0,0)"
       y="-1.5875"
       x="-290.64999"
       height="1.5875"
       width="0.79375148"
       id="rect1628-9-5"
       style="fill:#fff5ea;fill-opacity:1;stroke:none;stroke-width:0.38119105" />
    <rect
       transform="matrix(0,-1,-1,0,0,0)"
       y="-7.9375"
       x="-290.64999"
       height="1.5875"
       width="0.79375148"
       id="rect1628-9-5-9"
       style="fill:#fff5ea;fill-opacity:1;stroke:none;stroke-width:0.38119105" />
    <rect
       transform="matrix(0,-1,-1,0,0,0)"
       y="-4.7625003"
       x="-290.64999"
       height="1.5875"
       width="0.79375148"
       id="rect1628-9-5-6"
       style="fill:#fff5ea;fill-opacity:1;stroke:none;stroke-width:0.38119105" />
    <rect
       transform="matrix(0,-1,-1,0,0,0)"
       y="-3.175"
       x="-294.61874"
       height="0.79374999"
       width="2.3812544"
       id="rect1628-9-3-3-04-5"
       style="fill:#fff5ea;fill-opacity:1;stroke:none;stroke-width:0.46686181" />
    <rect
       transform="matrix(0,-1,-1,0,0,0)"
       y="-4.3656249"
       x="-295.80936"
       height="0.79374999"
       width="3.1750059"
       id="rect1628-9-3-3-04-7"
       style="fill:#fff5ea;fill-opacity:1;stroke:none;stroke-width:0.53908563" />
    <rect
       transform="matrix(0,-1,-1,0,0,0)"
       y="-5.5562501"
       x="-295.80936"
       height="0.79374999"
       width="1.9843788"
       id="rect1628-9-3-3-04-9"
       style="fill:#fff5ea;fill-opacity:1;stroke:none;stroke-width:0.42618459" />
    <rect
       transform="matrix(0,-1,-1,0,0,0)"
       y="-6.7468753"
       x="-295.41251"
       height="0.79374999"
       width="3.1750059"
       id="rect1628-9-3-3-04-9-1"
       style="fill:#fff5ea;fill-opacity:1;stroke:none;stroke-width:0.53908563" />
  </g>
</svg>
