<?xml version="1.0" encoding="UTF-8" standalone="no"?>
<!-- Created with Inkscape (http://www.inkscape.org/) -->

<svg
   xmlns:dc="http://purl.org/dc/elements/1.1/"
   xmlns:cc="http://creativecommons.org/ns#"
   xmlns:rdf="http://www.w3.org/1999/02/22-rdf-syntax-ns#"
   xmlns:svg="http://www.w3.org/2000/svg"
   xmlns="http://www.w3.org/2000/svg"
   xmlns:sodipodi="http://sodipodi.sourceforge.net/DTD/sodipodi-0.dtd"
   xmlns:inkscape="http://www.inkscape.org/namespaces/inkscape"
   width="30"
   height="30"
   viewBox="0 0 7.9374998 7.9375002"
   version="1.1"
   id="svg857"
   inkscape:version="0.92.3 (2405546, 2018-03-11)"
   sodipodi:docname="calendar-icon-current.svg">
  <defs
     id="defs851" />
  <sodipodi:namedview
     id="base"
     pagecolor="#ffffff"
     bordercolor="#666666"
     borderopacity="1.0"
     inkscape:pageopacity="0.0"
     inkscape:pageshadow="2"
     inkscape:zoom="6.8017011"
     inkscape:cx="-1.8432375"
     inkscape:cy="5.1593071"
     inkscape:document-units="mm"
     inkscape:current-layer="layer1"
     showgrid="false"
     inkscape:window-width="1920"
     inkscape:window-height="1001"
     inkscape:window-x="-9"
     inkscape:window-y="-9"
     inkscape:window-maximized="1"
     units="px" />
  <metadata
     id="metadata854">
    <rdf:RDF>
      <cc:Work
         rdf:about="">
        <dc:format>image/svg+xml</dc:format>
        <dc:type
           rdf:resource="http://purl.org/dc/dcmitype/StillImage" />
        <dc:title></dc:title>
      </cc:Work>
    </rdf:RDF>
  </metadata>
  <g
     inkscape:label="Layer 1"
     inkscape:groupmode="layer"
     id="layer1"
     transform="translate(0,-289.06248)">
    <rect
       style="fill:#fff5ea;fill-opacity:1;stroke:none;stroke-width:0.8086282"
       id="rect1628"
       width="0.79374999"
       height="7.1437635"
       x="-0.79374999"
       y="289.85623"
       transform="scale(-1,1)" />
    <rect
       style="fill:#fff5ea;fill-opacity:1;stroke:none;stroke-width:0.8086282"
       id="rect1628-2"
       width="0.79374999"
       height="7.1437635"
       x="-7.9375"
       y="289.85623"
       transform="scale(-1,1)" />
    <rect
       style="fill:#fff5ea;fill-opacity:1;stroke:none;stroke-width:0.85236907"
       id="rect1628-2-3"
       width="0.79375148"
       height="7.9375"
       x="-297"
       y="-7.9375"
       transform="matrix(0,-1,-1,0,0,0)" />
    <rect
       style="fill:#fff5ea;fill-opacity:1;stroke:none;stroke-width:0.46686181"
       id="rect1628-9"
       width="0.79374999"
       height="2.3812544"
       x="-2.778125"
       y="289.0625"
       transform="scale(-1,1)" />
    <rect
       style="fill:#fff5ea;fill-opacity:1;stroke:none;stroke-width:0.46686181"
       id="rect1628-9-3"
       width="0.79374999"
       height="2.3812544"
       x="-5.953125"
       y="289.0625"
       transform="scale(-1,1)" />
    <rect
       style="fill:#fff5ea;fill-opacity:1;stroke:none;stroke-width:0.26954281"
       id="rect1628-9-3-3"
       width="0.79375148"
       height="0.79374999"
       x="-294.61874"
       y="-6.7468753"
       transform="matrix(0,-1,-1,0,0,0)" />
    <rect
       style="fill:#fff5ea;fill-opacity:1;stroke:none;stroke-width:0.26954281"
       id="rect1628-9-3-3-0"
       width="0.79375148"
       height="0.79374999"
       x="-293.4281"
       y="-4.3656249"
       transform="matrix(0,-1,-1,0,0,0)" />
    <rect
       style="fill:#fff5ea;fill-opacity:1;stroke:none;stroke-width:0.26954281"
       id="rect1628-9-3-3-5"
       width="0.79375148"
       height="0.79374999"
       x="-293.43292"
       y="-5.5562501"
       transform="matrix(0,-1,-1,0,0,0)" />
    <rect
       style="fill:#fff5ea;fill-opacity:1;stroke:none;stroke-width:0.26954281"
       id="rect1628-9-3-3-3"
       width="0.79375148"
       height="0.79374999"
       x="-293.4281"
       y="-6.7286568"
       transform="matrix(0,-1,-1,0,0,0)" />
    <rect
       style="fill:#fff5ea;fill-opacity:1;stroke:none;stroke-width:0.26954281"
       id="rect1628-9-3-3-1"
       width="0.79375148"
       height="0.79374999"
       x="-294.61874"
       y="-5.5562501"
       transform="matrix(0,-1,-1,0,0,0)" />
    <rect
       style="fill:#fff5ea;fill-opacity:1;stroke:none;stroke-width:0.26954281"
       id="rect1628-9-3-3-6"
       width="0.79375148"
       height="0.79374999"
       x="-294.61874"
       y="-4.3656249"
       transform="matrix(0,-1,-1,0,0,0)" />
    <rect
       style="fill:#fff5ea;fill-opacity:1;stroke:none;stroke-width:0.26954281"
       id="rect1628-9-3-3-31"
       width="0.79375148"
       height="0.79374999"
       x="-294.61874"
       y="-3.175"
       transform="matrix(0,-1,-1,0,0,0)" />
    <rect
       style="fill:#fff5ea;fill-opacity:1;stroke:none;stroke-width:0.26954281"
       id="rect1628-9-3-3-04"
       width="0.79375148"
       height="0.79374999"
       x="-294.61874"
       y="-1.984375"
       transform="matrix(0,-1,-1,0,0,0)" />
    <rect
       style="fill:#fff5ea;fill-opacity:1;stroke:none;stroke-width:0.26954281"
       id="rect1628-9-3-3-04-3"
       width="0.79375148"
       height="0.79374999"
       x="-295.80936"
       y="-1.984375"
       transform="matrix(0,-1,-1,0,0,0)" />
    <rect
       style="fill:#fff5ea;fill-opacity:1;stroke:none;stroke-width:0.26954281"
       id="rect1628-9-3-3-04-5"
       width="0.79375148"
       height="0.79374999"
       x="-295.80936"
       y="-3.175"
       transform="matrix(0,-1,-1,0,0,0)" />
    <rect
       style="fill:#fff5ea;fill-opacity:1;stroke:none;stroke-width:0.26954281"
       id="rect1628-9-3-3-04-6"
       width="0.79375148"
       height="0.79374999"
       x="-295.80936"
       y="-4.3656249"
       transform="matrix(0,-1,-1,0,0,0)" />
    <rect
       style="fill:#fff5ea;fill-opacity:1;stroke:none;stroke-width:0.26954281"
       id="rect1628-9-3-3-04-6-7"
       width="0.79375148"
       height="0.79374999"
       x="-295.80936"
       y="-5.5562501"
       transform="matrix(0,-1,-1,0,0,0)" />
    <rect
       style="fill:#fff5ea;fill-opacity:1;stroke:none;stroke-width:0.38119105"
       id="rect1628-9-5"
       width="0.79375148"
       height="1.5875"
       x="-290.64999"
       y="-1.5875"
       transform="matrix(0,-1,-1,0,0,0)" />
    <rect
       style="fill:#fff5ea;fill-opacity:1;stroke:none;stroke-width:0.38119105"
       id="rect1628-9-5-9"
       width="0.79375148"
       height="1.5875"
       x="-290.64999"
       y="-7.9375"
       transform="matrix(0,-1,-1,0,0,0)" />
    <rect
       style="fill:#fff5ea;fill-opacity:1;stroke:none;stroke-width:0.38119105"
       id="rect1628-9-5-6"
       width="0.79375148"
       height="1.5875"
       x="-290.64999"
       y="-4.7625003"
       transform="matrix(0,-1,-1,0,0,0)" />
  </g>
</svg>
