<?xml version="1.0" encoding="UTF-8" standalone="no"?>
<!-- Created with Inkscape (http://www.inkscape.org/) -->

<svg
   xmlns:dc="http://purl.org/dc/elements/1.1/"
   xmlns:cc="http://creativecommons.org/ns#"
   xmlns:rdf="http://www.w3.org/1999/02/22-rdf-syntax-ns#"
   xmlns:svg="http://www.w3.org/2000/svg"
   xmlns="http://www.w3.org/2000/svg"
   xmlns:sodipodi="http://sodipodi.sourceforge.net/DTD/sodipodi-0.dtd"
   xmlns:inkscape="http://www.inkscape.org/namespaces/inkscape"
   width="23"
   height="30"
   viewBox="0 0 6.0854165 7.9375002"
   version="1.1"
   id="svg857"
   inkscape:version="0.92.3 (2405546, 2018-03-11)"
   sodipodi:docname="tasks-icon-current.svg">
  <defs
     id="defs851" />
  <sodipodi:namedview
     id="base"
     pagecolor="#ffffff"
     bordercolor="#666666"
     borderopacity="1.0"
     inkscape:pageopacity="0.0"
     inkscape:pageshadow="2"
     inkscape:zoom="19.238117"
     inkscape:cx="-3.0939234"
     inkscape:cy="11.724566"
     inkscape:document-units="mm"
     inkscape:current-layer="layer1"
     showgrid="false"
     inkscape:window-width="1920"
     inkscape:window-height="1001"
     inkscape:window-x="-9"
     inkscape:window-y="-9"
     inkscape:window-maximized="1"
     units="px" />
  <metadata
     id="metadata854">
    <rdf:RDF>
      <cc:Work
         rdf:about="">
        <dc:format>image/svg+xml</dc:format>
        <dc:type
           rdf:resource="http://purl.org/dc/dcmitype/StillImage" />
        <dc:title></dc:title>
      </cc:Work>
    </rdf:RDF>
  </metadata>
  <g
     inkscape:label="Layer 1"
     inkscape:groupmode="layer"
     id="layer1"
     transform="translate(0,-289.06247)">
    <rect
       style="fill:#fff5ea;fill-opacity:1;stroke:none;stroke-width:0.77183449"
       id="rect1628"
       width="0.7159313"
       height="7.2158914"
       x="-0.7159313"
       y="289.78412"
       transform="scale(-1,1)" />
    <rect
       style="fill:#fff5ea;fill-opacity:1;stroke:none;stroke-width:0.77183449"
       id="rect1628-2"
       width="0.7159313"
       height="7.2158914"
       x="-6.0854168"
       y="289.78412"
       transform="scale(-1,1)" />
    <rect
       style="fill:#fff5ea;fill-opacity:1;stroke:none;stroke-width:0.71159625"
       id="rect1628-2-3"
       width="0.72158909"
       height="6.0854168"
       x="-297"
       y="-6.0854168"
       transform="matrix(0,-1,-1,0,0,0)" />
    <rect
       style="fill:#fff5ea;fill-opacity:1;stroke:none;stroke-width:0.71159625"
       id="rect1628-9-5"
       width="0.72158909"
       height="6.0854168"
       x="-290.50568"
       y="-6.0854168"
       transform="matrix(0,-1,-1,0,0,0)" />
    <rect
       style="fill:#fff5ea;fill-opacity:1;stroke:none;stroke-width:0.73222661"
       id="rect1628-9-3-3-04-5"
       width="1.4431782"
       height="3.2216909"
       x="-290.50568"
       y="-4.6535535"
       transform="matrix(0,-1,-1,0,0,0)" />
    <rect
       style="fill:#fff5ea;fill-opacity:1;stroke:none;stroke-width:0.24407555"
       id="rect1628-9-3-3-04-1"
       width="0.72158909"
       height="0.7159313"
       x="-291.94888"
       y="-1.7898283"
       transform="matrix(0,-1,-1,0,0,0)" />
    <rect
       style="fill:#fff5ea;fill-opacity:1;stroke:none;stroke-width:0.4881511"
       id="rect1628-9-3-3-04-8-3"
       width="0.72158909"
       height="2.8637252"
       x="-291.94888"
       y="-5.0115194"
       transform="matrix(0,-1,-1,0,0,0)" />
    <rect
       style="fill:#fff5ea;fill-opacity:1;stroke:none;stroke-width:0.24407555"
       id="rect1628-9-3-3-04-6"
       width="0.72158909"
       height="0.7159313"
       x="-293.03128"
       y="-1.7898283"
       transform="matrix(0,-1,-1,0,0,0)" />
    <rect
       style="fill:#fff5ea;fill-opacity:1;stroke:none;stroke-width:0.4881511"
       id="rect1628-9-3-3-04-8-7"
       width="0.72158909"
       height="2.8637252"
       x="-294.11362"
       y="-5.0115194"
       transform="matrix(0,-1,-1,0,0,0)" />
    <rect
       style="fill:#fff5ea;fill-opacity:1;stroke:none;stroke-width:0.24407555"
       id="rect1628-9-3-3-04-59"
       width="0.72158909"
       height="0.7159313"
       x="-294.11362"
       y="-1.7898283"
       transform="matrix(0,-1,-1,0,0,0)" />
    <rect
       style="fill:#fff5ea;fill-opacity:1;stroke:none;stroke-width:0.4881511"
       id="rect1628-9-3-3-04-8-36"
       width="0.72158909"
       height="2.8637252"
       x="-293.03128"
       y="-5.0115194"
       transform="matrix(0,-1,-1,0,0,0)" />
    <rect
       style="fill:#fff5ea;fill-opacity:1;stroke:none;stroke-width:0.24407555"
       id="rect1628-9-3-3-04-64"
       width="0.72158909"
       height="0.7159313"
       x="-295.19604"
       y="-1.7898283"
       transform="matrix(0,-1,-1,0,0,0)" />
    <rect
       style="fill:#fff5ea;fill-opacity:1;stroke:none;stroke-width:0.4881511"
       id="rect1628-9-3-3-04-8-0"
       width="0.72158909"
       height="2.8637252"
       x="-295.19604"
       y="-5.0115194"
       transform="matrix(0,-1,-1,0,0,0)" />
  </g>
</svg>
