<?xml version="1.0" encoding="UTF-8" standalone="no"?>
<!-- Created with Inkscape (http://www.inkscape.org/) -->

<svg
   xmlns:dc="http://purl.org/dc/elements/1.1/"
   xmlns:cc="http://creativecommons.org/ns#"
   xmlns:rdf="http://www.w3.org/1999/02/22-rdf-syntax-ns#"
   xmlns:svg="http://www.w3.org/2000/svg"
   xmlns="http://www.w3.org/2000/svg"
   xmlns:sodipodi="http://sodipodi.sourceforge.net/DTD/sodipodi-0.dtd"
   xmlns:inkscape="http://www.inkscape.org/namespaces/inkscape"
   width="210mm"
   height="297mm"
   viewBox="0 0 210 297"
   version="1.1"
   id="svg857"
   inkscape:version="0.92.3 (2405546, 2018-03-11)"
   sodipodi:docname="tasks-icon.svg">
  <defs
     id="defs851" />
  <sodipodi:namedview
     id="base"
     pagecolor="#ffffff"
     bordercolor="#666666"
     borderopacity="1.0"
     inkscape:pageopacity="0.0"
     inkscape:pageshadow="2"
     inkscape:zoom="13.603403"
     inkscape:cx="-1.0901251"
     inkscape:cy="10.530138"
     inkscape:document-units="mm"
     inkscape:current-layer="layer1"
     showgrid="false"
     inkscape:window-width="1920"
     inkscape:window-height="1001"
     inkscape:window-x="-9"
     inkscape:window-y="-9"
     inkscape:window-maximized="1" />
  <metadata
     id="metadata854">
    <rdf:RDF>
      <cc:Work
         rdf:about="">
        <dc:format>image/svg+xml</dc:format>
        <dc:type
           rdf:resource="http://purl.org/dc/dcmitype/StillImage" />
        <dc:title />
      </cc:Work>
    </rdf:RDF>
  </metadata>
  <g
     inkscape:label="Layer 1"
     inkscape:groupmode="layer"
     id="layer1">
    <rect
       style="fill:#23ad7b;fill-opacity:1;stroke:none;stroke-width:0.56824547"
       id="rect1628"
       width="0.52916664"
       height="5.2916665"
       x="-0.52916664"
       y="291.70834"
       transform="scale(-1,1)" />
    <rect
       style="fill:#23ad7b;fill-opacity:1;stroke:none;stroke-width:0.56824547"
       id="rect1628-2"
       width="0.52916664"
       height="5.2916665"
       x="-4.4979167"
       y="291.70834"
       transform="scale(-1,1)" />
    <rect
       style="fill:#23ad7b;fill-opacity:1;stroke:none;stroke-width:0.52389646"
       id="rect1628-2-3"
       width="0.52916664"
       height="4.4979167"
       x="-297"
       y="-4.4979167"
       transform="matrix(0,-1,-1,0,0,0)" />
    <rect
       style="fill:#23ad7b;fill-opacity:1;stroke:none;stroke-width:0.52389646"
       id="rect1628-9-5"
       width="0.52916664"
       height="4.4979167"
       x="-292.23749"
       y="-4.4979167"
       transform="matrix(0,-1,-1,0,0,0)" />
    <rect
       style="fill:#23ad7b;fill-opacity:1;stroke:none;stroke-width:0.53908509"
       id="rect1628-9-3-3-04-5"
       width="1.0583333"
       height="2.3812499"
       x="-292.23749"
       y="-3.4395833"
       transform="matrix(0,-1,-1,0,0,0)" />
    <rect
       style="fill:#23ad7b;fill-opacity:1;stroke:none;stroke-width:0.17969504"
       id="rect1628-9-3-3-04-1"
       width="0.52916664"
       height="0.52916664"
       x="-293.29584"
       y="-1.3229166"
       transform="matrix(0,-1,-1,0,0,0)" />
    <rect
       style="fill:#23ad7b;fill-opacity:1;stroke:none;stroke-width:0.35939008"
       id="rect1628-9-3-3-04-8-3"
       width="0.52916664"
       height="2.1166666"
       x="-293.29584"
       y="-3.7041669"
       transform="matrix(0,-1,-1,0,0,0)" />
    <rect
       style="fill:#23ad7b;fill-opacity:1;stroke:none;stroke-width:0.17969504"
       id="rect1628-9-3-3-04-6"
       width="0.52916664"
       height="0.52916664"
       x="-294.0896"
       y="-1.3229166"
       transform="matrix(0,-1,-1,0,0,0)" />
    <rect
       style="fill:#23ad7b;fill-opacity:1;stroke:none;stroke-width:0.35939008"
       id="rect1628-9-3-3-04-8-7"
       width="0.52916664"
       height="2.1166666"
       x="-294.88333"
       y="-3.7041669"
       transform="matrix(0,-1,-1,0,0,0)" />
    <rect
       style="fill:#23ad7b;fill-opacity:1;stroke:none;stroke-width:0.17969504"
       id="rect1628-9-3-3-04-59"
       width="0.52916664"
       height="0.52916664"
       x="-294.88333"
       y="-1.3229166"
       transform="matrix(0,-1,-1,0,0,0)" />
    <rect
       style="fill:#23ad7b;fill-opacity:1;stroke:none;stroke-width:0.35939008"
       id="rect1628-9-3-3-04-8-36"
       width="0.52916664"
       height="2.1166666"
       x="-294.0896"
       y="-3.7041669"
       transform="matrix(0,-1,-1,0,0,0)" />
    <rect
       style="fill:#23ad7b;fill-opacity:1;stroke:none;stroke-width:0.17969504"
       id="rect1628-9-3-3-04-64"
       width="0.52916664"
       height="0.52916664"
       x="-295.67709"
       y="-1.3229166"
       transform="matrix(0,-1,-1,0,0,0)" />
    <rect
       style="fill:#23ad7b;fill-opacity:1;stroke:none;stroke-width:0.35939008"
       id="rect1628-9-3-3-04-8-0"
       width="0.52916664"
       height="2.1166666"
       x="-295.67709"
       y="-3.7041669"
       transform="matrix(0,-1,-1,0,0,0)" />
  </g>
</svg>
